<?xml version="1.0" encoding="UTF-8" standalone="no"?>
<!-- Created with Keyshape -->
<svg xmlns="http://www.w3.org/2000/svg" xmlns:xlink="http://www.w3.org/1999/xlink" width="411" height="120" viewBox="0 0 411 120" text-rendering="geometricPrecision" shape-rendering="geometricPrecision" style="white-space: pre;">
    <path fill="#b4b4b4" stroke="none" stroke-dasharray="2781.2199999999998 2781.2199999999998" stroke-dashoffset="1390.6099999999999" stroke-width="5" d="M1.92,-6.72L17.44,-6.72L27.84,-36.48L69.76,-36.48L80.32,-6.72L97.6,-6.72L58.24,-116.32L41.6,-116.32ZM48.32,-95.52L48.8,-95.52L64.96,-49.6L32.32,-49.6ZM140.639,-4.8C167.999,-4.8,182.399,-20.32,182.399,-48L182.399,-50.24C182.399,-80.64,166.079,-89.92,151.039,-89.92C140.159,-89.92,132.639,-86.88,126.399,-83.04L125.599,-83.04L125.599,-123.52L109.919,-123.52L109.919,-9.12C117.119,-6.56,130.719,-4.8,140.639,-4.8ZM141.759,-17.44C133.919,-17.44,128.959,-18.88,125.599,-20.16L125.599,-72.32C129.279,-74.08,136.159,-76.64,143.359,-76.64C158.879,-76.64,165.919,-69.92,165.919,-48.96L165.919,-45.6C165.919,-23.52,154.559,-17.44,141.759,-17.44ZM231.992,-5.28C254.232,-5.28,269.753,-20.64,269.753,-46.56L269.753,-48.96C269.753,-74.72,255.832,-89.92,232.152,-89.92C209.432,-89.92,194.072,-74.4,194.072,-48.48L194.072,-45.76C194.072,-20.32,207.833,-5.28,231.992,-5.28ZM232.152,-17.6C219.992,-17.6,210.232,-24,210.232,-45.6L210.232,-49.92C210.232,-67.84,218.072,-77.28,231.833,-77.28C243.673,-77.28,253.272,-70.88,253.272,-49.28L253.272,-44.96C253.272,-27.04,245.432,-17.6,232.152,-17.6ZM310.224,-5.28C320.464,-5.28,328.624,-8.96,335.344,-13.76L336.144,-13.76L337.744,-6.72L351.184,-6.72L351.184,-88.32L335.504,-88.32L335.504,-23.84C329.904,-21.28,323.504,-18.56,315.504,-18.56C304.464,-18.56,301.264,-22.24,301.264,-31.84L301.264,-88.32L285.424,-88.32L285.424,-29.12C285.424,-13.28,294.224,-5.28,310.224,-5.28ZM399.334,-5.92C406.854,-5.92,410.534,-7.52,413.894,-8.96L413.894,-19.52C410.694,-19.04,407.174,-18.56,403.814,-18.56C395.014,-18.56,392.614,-21.28,392.614,-28.64L392.614,-75.68L412.294,-75.68L412.294,-88.32L392.614,-88.32L392.614,-107.52L376.774,-107.52L376.774,-88.32L365.254,-88.32L365.254,-75.68L376.774,-75.68L376.774,-26.4C376.774,-11.52,385.734,-5.92,399.334,-5.92Z" transform="translate(-1.92,123.52)"/>
</svg>
