<?xml version="1.0" encoding="UTF-8" standalone="no"?>
<!-- Created with Keyshape -->
<svg xmlns="http://www.w3.org/2000/svg" xmlns:xlink="http://www.w3.org/1999/xlink" id="svg3592" viewBox="0 0 301.5436 294.6359">
    <metadata id="metadata3598"/>
    <path id="path5714" d="M274.4,285.518C273.517,284.635,264.8,284.318,241.4,284.318C223.91,284.318,204.436,285.395,204.436,284.933C204.436,284.47,215.107,278.76,217.852,277.266C225.113,273.315,234.272,266.414,240.566,259.94L246.032,254.318L275.989,254.267C276.333,251.569,275.989,240.212,275.989,242.129C277.783,242.129,303.6,267.532,303.6,269.346C303.6,270.821,276.148,296.432,274.711,296.432C274.305,296.432,275.06,286.178,274.4,285.518ZM28.6352,283.384C27.3404,280.964,27.2925,257.353,28.5783,255.318C29.4006,254.016,38.7509,253.749,99.313,253.299L169.1,252.781L168.66,252.99C204.433,241,234.6,207.815,234.6,171.592C234.6,125.489,194.754,87.9796,148.618,90.6521C136.435,91.3578,129.018,93.1547,118.76,97.8858C95.6082,108.564,78.6662,129.655,73.0835,154.748C69.8298,169.372,73.1463,196.365,78.5801,203.797C79.8776,205.571,79.5146,205.535,84.1223,203.965C90.5357,201.78,92.0156,199.304,91.3573,202.519C90.3099,207.634,74.6492,239.318,73.1353,239.318C70.5131,239.318,37.6,223.041,37.6,221.744C37.6,221.048,39.8447,219.733,42.5882,218.822C45.3318,217.911,47.7612,216.862,47.9869,216.491C48.2126,216.121,47.0849,211.901,45.4809,207.113C42.1291,197.108,39.6118,181.97,39.6118,171.818C39.6118,157.03,43.5973,138.845,49.6351,126.082C51.2649,122.637,52.5988,119.327,52.5992,118.727C52.5996,118.127,50.1026,117.077,47.0503,116.394C26.9653,111.899,9.38688,94.4816,4.12162,73.8578C-0.71072,54.9298,5.35339,33.5441,19.5898,19.3077C41.8008,-2.90332,76.8471,-3.50713,99.5713,17.9297C103.296,21.4432,106.963,24.3079,107.722,24.2957C108.48,24.2835,110.225,23.3935,111.6,22.3179C113.698,20.6768,117.6,19.5758,117.6,20.6249C117.6,22.6634,110.269,52.0494,109.591,52.727C108.639,53.6789,79.9468,47.8184,77.4348,46.1591C76.0646,45.2539,77.5689,43.5327,82.2314,40.6711C83.7166,39.7596,83.8794,39.1441,83.0247,37.6711C81.1182,34.3854,72.7363,29.488,66.9708,28.2911C59.7288,26.7877,53.6018,27.6892,45.9356,31.3863C34.5745,36.8651,28.1306,47.3849,28.2136,60.3179C28.2719,69.4083,30.5285,75.1153,36.7207,81.8331C42.5586,88.1664,49.3971,91.491,57.8375,92.0993C67.5518,92.7994,72.2813,91.0959,83.5952,82.8215C100.376,70.5485,117.233,63.1327,134.779,60.3043C146.242,58.4565,169.852,59.5004,180.6,62.3302C224.363,73.8521,257.534,110.26,264.632,154.561C265.437,159.59,265.678,167.478,265.318,177.061C264.647,194.893,262,205.757,254.641,220.884C237.81,255.481,208.62,280.012,170.576,284.933C166.428,285.47,130.174,285.27,94.3852,285.287C31.4104,285.317,29.6425,285.266,28.6352,283.384Z" transform="translate(-2,-2)"/>
</svg>
