<?xml version="1.0" encoding="UTF-8"?>
<svg enable-background="new 0 0 100 100" style="white-space:preserve-spaces" viewBox="0 0 100 89.498001" xmlns="http://www.w3.org/2000/svg">
  <g>
    <path transform="translate(0,-5.252)" d="m79.839 79.279h10.223v-4.418l9.938 9.944-9.938 9.945v-4.418h-24.16c5.35-2.738 10.075-6.51 13.937-11.053z"/>
    <path transform="translate(0,-5.252)" d="m41.186 21.016c-14.209 2.013-25.159 14.241-25.159 28.987 0 10.114 5.157 19.046 12.971 24.31h-15.845c-5.123-6.766-8.178-15.189-8.178-24.31 0-20.647 15.606-37.713 35.631-40.047l-5.248 5.242z"/>
    <path transform="translate(0,-5.252)" d="m5.532 84.805l-5.521-5.525h45.298c16.14 0 29.282-13.131 29.282-29.276 0-14.451-10.529-26.482-24.307-28.851v3.99l-9.95-9.944 9.95-9.947v4.738c19.899 2.459 35.358 19.457 35.358 40.013 0 22.237-18.094 40.329-40.333 40.329h-45.309z"/>
  </g>
  <path transform="translate(7.908 4.0338)" d="m37.897 21.889l-4.3995 13.543h-14.238l11.518 8.3716-4.3995 13.531 11.518-8.3597 11.518 8.3478-4.3936-13.519 11.518-8.3716h-14.244z"/>
</svg>
