<?xml version="1.0" encoding="UTF-8" standalone="no"?>
<!-- Created with Keyshape -->
<svg xmlns="http://www.w3.org/2000/svg" xmlns:xlink="http://www.w3.org/1999/xlink" enable-background="new 0 0 100 100" viewBox="0 0 100 89.498001" style="white-space: preserve-spaces;">
    <g>
        <path d="M79.839,79.279L90.062,79.279L90.062,74.861L100,84.805L90.062,94.75L90.062,90.332L65.902,90.332C71.252,87.594,75.977,83.822,79.839,79.279Z" transform="translate(0,-5.252)"/>
        <path d="M41.186,21.016C26.977,23.029,16.027,35.257,16.027,50.003C16.027,60.117,21.184,69.049,28.998,74.313L13.153,74.313C8.03,67.547,4.975,59.124,4.975,50.003C4.975,29.356,20.581,12.29,40.606,9.956L35.358,15.198Z" transform="translate(0,-5.252)"/>
        <path d="M5.532,84.805L0.011,79.28L45.309,79.28C61.449,79.28,74.591,66.149,74.591,50.004C74.591,35.553,64.062,23.522,50.284,21.153L50.284,25.143L40.334,15.199L50.284,5.252L50.284,9.99C70.183,12.449,85.642,29.447,85.642,50.003C85.642,72.24,67.548,90.332,45.309,90.332L0,90.332Z" transform="translate(0,-5.252)"/>
    </g>
    <g transform="translate(19.2004,16.6673) scale(0.52,0.52)">
        <path d="M50.001,43.086C56.728,43.086,62.199,37.613,62.199,30.887C62.199,24.161,56.727,18.688,50.001,18.688C43.275,18.688,37.801,24.16,37.801,30.887C37.801,37.614,43.274,43.086,50.001,43.086Z"/>
        <path d="M61.271,43.595C58.266,46.263,54.325,47.899,50,47.899C45.674,47.899,41.733,46.263,38.728,43.595C34.092,45.268,30.762,49.7,30.762,54.906L30.762,81.313L69.236,81.313L69.236,54.906C69.237,49.7,65.908,45.268,61.271,43.595Z"/>
        <path d="M22.269,43.495C28.156,43.495,32.954,38.788,33.124,32.941C33.042,32.266,32.987,31.583,32.987,30.886L32.987,30.884C32.15,25.716,27.669,21.753,22.268,21.753C16.273,21.753,11.397,26.63,11.397,32.624C11.398,38.619,16.275,43.495,22.269,43.495Z"/>
        <path d="M12.291,44.717C8.008,46.561,5,50.821,5,55.772L5,75.84L25.95,75.84L25.95,54.906C25.95,52.162,26.623,49.578,27.791,47.287C26.07,47.937,24.215,48.31,22.269,48.31C18.482,48.309,15.004,46.959,12.291,44.717Z"/>
        <path d="M66.876,32.936C67.043,38.786,71.842,43.496,77.73,43.496C83.725,43.496,88.601,38.619,88.601,32.625C88.601,26.631,83.724,21.754,77.73,21.754C72.327,21.754,67.844,25.722,67.011,30.895C67.012,31.586,66.958,32.265,66.876,32.936Z"/>
        <path d="M87.709,44.717C84.996,46.96,81.518,48.309,77.731,48.309C75.786,48.309,73.93,47.936,72.209,47.286C73.377,49.577,74.05,52.162,74.05,54.906L74.05,75.84L95,75.84L95,55.772C95,50.821,91.992,46.561,87.709,44.717Z"/>
    </g>
</svg>
