<?xml version="1.0" encoding="UTF-8" standalone="no"?>
<!-- Created with Keyshape -->
<svg xmlns="http://www.w3.org/2000/svg" xmlns:xlink="http://www.w3.org/1999/xlink" viewBox="-30 0 1000 957">
    <g transform="translate(229.518,694) translate(-225.518,-256)">
        <path d="M436.223,121.359L226.016,0L15.8125,121.359L226.016,242.723ZM436.223,121.359" transform="translate(-0.5,0)"/>
        <path d="M241.273,512L451.535,390.605L451.535,147.758L241.273,269.148ZM241.273,512" transform="translate(-0.5,0)"/>
        <path d="M0.5,147.758L0.5,390.605L210.758,512L210.758,269.148ZM0.5,147.758" transform="translate(-0.5,0)"/>
    </g>
    <g transform="translate(771.018,694) translate(-225.518,-256)">
        <path d="M436.223,121.359L226.016,0L15.8125,121.359L226.016,242.723ZM436.223,121.359" transform="translate(-0.5,0)"/>
        <path d="M241.273,512L451.535,390.605L451.535,147.758L241.273,269.148ZM241.273,512" transform="translate(-0.5,0)"/>
        <path d="M0.5,147.758L0.5,390.605L210.758,512L210.758,269.148ZM0.5,147.758" transform="translate(-0.5,0)"/>
    </g>
    <g transform="translate(504.018,260) translate(-225.518,-256)">
        <path d="M436.223,121.359L226.016,0L15.8125,121.359L226.016,242.723ZM436.223,121.359" transform="translate(-0.5,0)"/>
        <path d="M241.273,512L451.535,390.605L451.535,147.758L241.273,269.148ZM241.273,512" transform="translate(-0.5,0)"/>
        <path d="M0.5,147.758L0.5,390.605L210.758,512L210.758,269.148ZM0.5,147.758" transform="translate(-0.5,0)"/>
    </g>
</svg>
