<?xml version="1.0" encoding="UTF-8" standalone="no"?>
<!-- Created with Keyshape -->
<svg xmlns="http://www.w3.org/2000/svg" xmlns:xlink="http://www.w3.org/1999/xlink" id="blogsvg" viewBox="0 0 430.117 430.118" style="white-space: preserve-spaces;">
    <path id="Blogger" d="M292.938,430.118C367.933,430.118,428.848,369.026,429.273,294.446L430.117,184.63L428.848,178.656L425.244,171.14L419.153,166.429C411.238,160.219,371.138,166.849,360.343,157.041C352.68,150.045,351.485,137.404,349.17,120.271C344.862,87.091,342.142,85.359,336.942,74.109C318.07,34.166,266.84,4.149,231.646,0L136.314,0C61.316,0,0,61.181,0,135.908L0,294.446C0,369.026,61.316,430.118,136.313,430.118L292.938,430.118ZM138.05,111.032L213.631,111.032C228.062,111.032,239.748,122.746,239.748,136.983C239.748,151.162,228.061,162.972,213.631,162.972L138.05,162.972C123.617,162.972,111.954,151.157,111.954,136.983C111.954,122.747,123.617,111.032,138.05,111.032ZM111.954,292.439C111.954,278.205,123.617,266.579,138.05,266.579L291.627,266.579C305.964,266.579,317.604,278.205,317.604,292.439C317.604,306.482,305.964,318.294,291.627,318.294L138.05,318.294C123.617,318.294,111.954,306.482,111.954,292.439Z"/>
</svg>
