<?xml version="1.0" encoding="UTF-8"?>
<svg version="1.1" viewBox="0 0 90.188545 89.599998" xml:space="preserve" xmlns="http://www.w3.org/2000/svg" xmlns:cc="http://creativecommons.org/ns#" xmlns:dc="http://purl.org/dc/elements/1.1/" xmlns:rdf="http://www.w3.org/1999/02/22-rdf-syntax-ns#">
  <metadata><rdf:RDF><cc:Work rdf:about=""><dc:format>image/svg+xml</dc:format><dc:type rdf:resource="http://purl.org/dc/dcmitype/StillImage"/></cc:Work></rdf:RDF></metadata>
  <path d="m89.9 74.9-20.5-33c2.4-4.1 3.7-8.8 3.7-13.9 0-15.5-12.5-28-28-28s-28 12.5-28 28c0 5.1 1.3 9.8 3.7 13.9l-20.5 33c-0.4 0.6-0.4 1.5 0 2.1s1.2 1 1.9 0.9l12.5-1.6 4.1 11.9c0.2 0.7 0.9 1.2 1.7 1.3h0.2c0.7 0 1.3-0.3 1.7-0.9l20.3-32.8c0.8 0.2 1.6 0.2 2.4 0.2s1.6 0 2.4-0.1l20.3 32.8c0.4 0.6 1 0.9 1.7 0.9h0.2c0.8-0.1 1.4-0.6 1.7-1.3l4.1-11.9 12.4 1.6c0.8 0.1 1.5-0.2 1.9-0.9 0.5-0.7 0.5-1.5 0.1-2.2zm-68.7 8.1-3.2-9.5c-0.3-0.9-1.2-1.5-2.2-1.3l-9.9 1.3 17.3-27.9c3.8 4.7 9.1 8.2 15.2 9.7zm23.9-31c-13.2 0-24-10.8-24-24s10.8-24 24-24 24 10.8 24 24-10.8 24-24 24zm29.3 20.2c-1-0.1-1.9 0.4-2.2 1.3l-3.2 9.5-17.2-27.8c6.1-1.5 11.4-5 15.2-9.7l17.3 27.9zm-29.3-65.7c-11.9 0-21.5 9.6-21.5 21.5s9.6 21.5 21.5 21.5 21.5-9.6 21.5-21.5-9.6-21.5-21.5-21.5zm0 39c-9.7 0-17.5-7.9-17.5-17.5 0-9.7 7.9-17.5 17.5-17.5s17.5 7.8 17.5 17.5-7.8 17.5-17.5 17.5zm14.4-21c0.5-0.5 0.2-1.5-0.5-1.6l-8.5-1.2c-0.3 0-0.6-0.2-0.7-0.5l-3.8-7.7c-0.2-0.3-0.5-0.5-0.8-0.5s-0.7 0.2-0.8 0.5l-3.8 7.7c-0.1 0.3-0.4 0.5-0.7 0.5l-8.5 1.2c-0.8 0.1-1.1 1.1-0.5 1.6l6.2 6c0.2 0.2 0.3 0.5 0.3 0.8l-1.5 8.5c-0.1 0.6 0.4 1.1 0.9 1.1 0.1 0 0.3 0 0.4-0.1l7.6-4c0.1-0.1 0.3-0.1 0.4-0.1s0.3 0 0.4 0.1l7.6 4c0.1 0.1 0.3 0.1 0.4 0.1 0.5 0 1-0.5 0.9-1.1l-1.4-8.5c0-0.3 0-0.6 0.3-0.8zm-9 3.1c-1.2 1.1-1.7 2.8-1.4 4.4l0.4 2.4-2.1-1.1c-0.7-0.4-1.5-0.6-2.3-0.6s-1.6 0.2-2.3 0.6l-2.1 1.1 0.4-2.4c0.3-1.6-0.3-3.2-1.4-4.4l-1.8-1.6 2.4-0.3c1.6-0.2 3-1.2 3.7-2.7l1.1-2.2 1.1 2.2c0.7 1.5 2.1 2.5 3.7 2.7l2.4 0.3z"/>
</svg>
