<?xml version="1.0" encoding="UTF-8" standalone="no"?>
<!-- Created with Keyshape -->
<svg xmlns="http://www.w3.org/2000/svg" xmlns:xlink="http://www.w3.org/1999/xlink" id="chatsvg" viewBox="0 0 437.212 437.212" style="white-space: preserve-spaces;">
    <path d="M404.812,41.206L104.812,41.206C86.812,41.206,72.412,56.006,72.412,73.606L72.412,260.006C72.412,278.006,87.212,292.406,104.812,292.406L311.612,292.406L358.412,339.606C360.412,341.606,362.812,342.806,365.612,342.806C371.212,342.806,376.012,338.406,376.012,332.406L376.012,292.406L404.812,292.406C422.812,292.406,437.212,277.606,437.212,260.006L437.212,73.606C437.212,55.606,422.412,41.206,404.812,41.206ZM150.812,201.606C134.412,201.606,120.812,188.006,120.812,171.606C120.812,155.206,134.412,141.606,150.812,141.606C167.212,141.606,180.812,155.206,180.812,171.606C180.812,188.006,167.612,201.606,150.812,201.606ZM256.012,201.606C239.612,201.606,226.012,188.006,226.012,171.606C226.012,155.206,239.612,141.606,256.012,141.606C272.412,141.606,286.012,155.206,286.012,171.606C286.012,188.006,272.412,201.606,256.012,201.606ZM360.812,201.606C344.412,201.606,330.812,188.006,330.812,171.606C330.812,155.206,344.412,141.606,360.812,141.606C377.212,141.606,390.812,155.206,390.812,171.606C390.812,188.006,377.212,201.606,360.812,201.606Z"/>
    <path d="M54.012,260.806L54.012,197.206L21.212,197.206C9.612,197.206,0.012,206.806,0.012,218.406L0.012,340.806C-0.388,353.206,9.212,362.806,21.212,362.806L40.012,362.806L40.012,389.206C40.012,392.806,43.212,396.006,46.812,396.006C48.812,396.006,50.412,395.206,51.612,394.006L82.412,363.206L218.412,363.206C230.012,363.206,239.612,353.606,239.612,342.006L239.612,311.606L104.812,311.606C76.812,311.606,54.012,288.806,54.012,260.806Z"/>
</svg>
