<?xml version="1.0" encoding="UTF-8"?>
<svg enable-background="new 0 0 1000 1000" version="1.1" viewBox="0 0 979.9931 766.26123" xml:space="preserve" xmlns="http://www.w3.org/2000/svg" xmlns:cc="http://creativecommons.org/ns#" xmlns:dc="http://purl.org/dc/elements/1.1/" xmlns:rdf="http://www.w3.org/1999/02/22-rdf-syntax-ns#">
  <metadata> Svg Vector Icons : http://www.onlinewebfonts.com/icon <rdf:RDF><cc:Work rdf:about=""><dc:format>image/svg+xml</dc:format><dc:type rdf:resource="http://purl.org/dc/dcmitype/StillImage"/></cc:Work></rdf:RDF></metadata>
  <g transform="translate(-10 -116.88)">
    <g transform="matrix(.1 0 0 -.1 0 511)">
      <path d="m1389 3903.4c-251.6-90.2-413-249.3-508-503.3-64.1-166.2-54.6-432 21.4-598.2 66.5-151.9 244.5-337.1 394.1-410.7 227.9-111.6 562.6-99.7 771.5 28.5 467.6 289.6 538.9 930.5 144.8 1298.5-161.4 151.9-301.5 211.3-522.2 220.8-130.7 7.1-211.4-2.4-301.6-35.6z"/>
      <path d="m8106.9 3912.9c-140.1-45.1-246.9-116.3-360.8-239.8-339.5-370.3-258.7-961.4 166.2-1234.4 225.5-144.8 555.5-166.2 795.2-47.5 147.2 71.2 325.2 256.4 396.4 410.7 80.7 170.9 73.6 491.4-9.5 671.8-132.9 282.5-389.3 451-709.8 465.3-106.8 4.8-218.4-7.1-277.7-26.1z"/>
      <path d="m1602.6 2130.2c-118.7-19-258.7-54.6-308.6-80.7-166.2-83.1-268.2-239.8-268.2-410.7 0-175.7 261.1-2661 287.2-2744.1 35.6-106.8 149.5-232.6 268.2-296.7 95-49.8 123.4-52.2 1018.4-59.4l918.7-7.1v-2252.8h878.4v1350.7c0 892.5-9.5 1374.4-26.1 1419.5-42.7 118.7-144.8 242.1-254 315.7l-106.8 71.2h-636.2c-382.2 0-640.9 9.5-650.4 23.7-7.1 11.9-66.5 531.7-130.6 1156s-128.2 1172.7-142.4 1220.1c-78.5 278-346.7 370.5-847.6 294.6z"/>
      <path d="m7855.2 2134.9c-130.6-40.4-244.5-142.4-287.2-258.8-23.7-64.1-83.1-543.6-156.7-1255.7-64.1-633.8-118.7-1160.8-118.7-1167.9 0-9.5-292-16.6-650.4-16.6h-650.4l-113.9-78.3c-64.1-45.1-147.2-132.9-187.5-194.6l-71.3-114-7.1-1386.3-4.8-1383.9h878.4v2252.8l921 7.1c892.6 7.1 921 9.5 1016 59.4 118.7 64.1 232.7 189.9 268.3 296.7 26.1 83.1 287.2 2573.2 287.2 2744.1s-106.8 330-277.8 417.8c-83.1 40.4-500.9 109.2-659.9 106.8-52.2-0.1-135.3-14.3-185.2-28.6z"/>
      <path d="m202.1 1555.7c-61.7-7.1-102.1-21.4-102.1-40.3 0-142.4 270.6-2623 296.7-2729.9 130.6-512.8 538.9-923.4 1068.2-1077.7 78.3-21.4 282.5-38 600.6-45.1l479.5-11.9v-1372h474.8v1780.4h-659.9c-716.9 0-833.2 14.3-1054 135.3-211.3 113.9-405.9 360.8-467.6 588.7-23.7 92.6-287.2 2575.6-287.2 2718 0 71.2 0 71.2-123.4 66.5-69-2.5-171-7.2-225.6-12z"/>
      <path d="m9336.5 311.8c-149.5-1478.9-154.3-1514.5-227.9-1678.3-71.2-154.3-261.1-356.1-410.7-439.2-220.8-121.1-337.1-135.3-1054-135.3h-659.9v-1780.4h474.8v1372l481.9 11.9c315.7 7.1 519.9 23.7 598.2 45.1 529.4 154.3 937.7 567.4 1065.8 1077.7 35.6 135.3 313.3 2734.6 294.3 2751.2-4.7 4.8-104.4 16.6-220.7 26.1l-213.7 14.2z"/>
    </g>
  </g>
</svg>
