<?xml version="1.0" encoding="UTF-8"?>
<!DOCTYPE svg  PUBLIC '-//W3C//DTD SVG 1.1//EN'  'http://www.w3.org/Graphics/SVG/1.1/DTD/svg11.dtd'>
<svg enable-background="new 0 0 200 200" version="1.1" viewBox="0 0 200 200" xml:space="preserve" xmlns="http://www.w3.org/2000/svg">
    <g>
        <path d="m157.01 117.58c-0.543-2.392-1.868-4.648-3.954-6.473-2.103-1.813-4.665-2.907-7.323-3.307l-42.74-8.271 12.364 8.205-19.521 61.195-10.993-45.457-10.996 45.457-19.516-61.194 12.362-8.205-42.743 8.271c-2.656 0.399-5.221 1.494-7.321 3.307-2.088 1.824-3.413 4.081-3.956 6.473l-12.672 55.659 23.901 8.298c7.942 8.247 30.154 14.316 56.797 14.893h8.283c26.646-0.576 48.858-6.646 56.796-14.893l23.905-8.298-12.673-55.66z"/>
        <polygon points="84.841 105.74 74.987 109.26 84.841 123.47 94.693 109.26"/>
        <path d="m121.42 50.925c0-25.262-10.394-45.06-36.577-45.06-26.186 0-36.579 19.798-36.579 45.06-2.738 1.43-4.535 4.782-1.848 11.967 1.358 3.609 3.75 6.632 5.777 8.214 7.461 18.578 22.137 32.921 32.65 32.921 10.508 0 25.186-14.344 32.646-32.921 2.031-1.582 4.42-4.604 5.776-8.214 2.693-7.185 0.895-10.538-1.845-11.967z"/>
        <path d="m147.35 40.985h-19.424c0.125 1.104 0.231 2.222 0.315 3.365h19.108v-3.365z"/>
        <path d="m186.63 29.385h-61.013c0.328 1.095 0.614 2.224 0.886 3.367h60.127v-3.367z"/>
        <path d="m197.7 5.875c-1.534-1.532-3.545-2.301-5.556-2.301h-86.454c3.835 2.015 7.235 4.646 10.159 7.856h76.295v54.99h-21.025l-15.915 15.917v-15.917h-25.759c-1.237 2.901-3.004 5.645-5.041 7.858h22.943v21.606c0 0.878 0.521 1.714 1.384 2.073 0.865 0.359 1.824 0.138 2.447-0.487l23.195-23.193h17.771c2.011 0 4.021-0.769 5.556-2.303 1.534-1.534 2.299-3.544 2.299-5.555v-54.989c0-2.011-0.765-4.019-2.299-5.555z"/>
        <path d="m186.63 17.79h-66.063c0.652 1.081 1.269 2.201 1.844 3.367h64.219v-3.367z"/>
    </g>
</svg>
