<?xml version="1.0" encoding="UTF-8" standalone="no"?>
<!-- Created with Keyshape -->
<svg xmlns="http://www.w3.org/2000/svg" xmlns:xlink="http://www.w3.org/1999/xlink" width="518" height="113" viewBox="0 0 518 113" text-rendering="geometricPrecision" shape-rendering="geometricPrecision" style="white-space: pre;">
    <path fill="#b4b4b4" stroke="none" stroke-dasharray="2781.2199999999998 2781.2199999999998" stroke-dashoffset="1390.6099999999999" stroke-width="5" d="M55.36,-4.96C68.32,-4.96,78.4,-7.52,86.08,-11.84L86.08,-25.28C79.2,-22.08,71.04,-18.72,58.08,-18.72C33.92,-18.72,24.48,-34.08,24.48,-60.16L24.48,-66.08C24.48,-93.28,38.24,-104.48,57.6,-104.48C68.16,-104.48,76,-102.08,84.8,-98.88L84.8,-112.32C78.08,-115.84,69.28,-118.24,57.44,-118.24C29.6,-118.24,6.72,-103.36,6.72,-63.84L6.72,-60C6.72,-22.88,25.6,-4.96,55.36,-4.96ZM135.196,-5.28C157.436,-5.28,172.956,-20.64,172.956,-46.56L172.956,-48.96C172.956,-74.72,159.036,-89.92,135.356,-89.92C112.636,-89.92,97.2756,-74.4,97.2756,-48.48L97.2756,-45.76C97.2756,-20.32,111.036,-5.28,135.196,-5.28ZM135.356,-17.6C123.196,-17.6,113.436,-24,113.436,-45.6L113.436,-49.92C113.436,-67.84,121.276,-77.28,135.036,-77.28C146.876,-77.28,156.476,-70.88,156.476,-49.28L156.476,-44.96C156.476,-27.04,148.636,-17.6,135.356,-17.6ZM189.107,-6.72L204.787,-6.72L204.787,-71.36C210.387,-74.08,218.227,-76.48,225.107,-76.48C237.427,-76.48,239.987,-72.8,239.987,-63.84L239.987,-6.72L255.827,-6.72L255.827,-67.52C255.827,-83.36,248.147,-89.92,232.307,-89.92C222.387,-89.92,211.827,-86.08,204.947,-81.28L204.307,-81.28L204.307,-88.32L189.107,-88.32ZM303.506,-5.92C311.026,-5.92,314.706,-7.52,318.066,-8.96L318.066,-19.52C314.866,-19.04,311.346,-18.56,307.986,-18.56C299.186,-18.56,296.786,-21.28,296.786,-28.64L296.786,-75.68L316.466,-75.68L316.466,-88.32L296.786,-88.32L296.786,-107.52L280.946,-107.52L280.946,-88.32L269.426,-88.32L269.426,-75.68L280.946,-75.68L280.946,-26.4C280.946,-11.52,289.906,-5.92,303.506,-5.92ZM353.739,-5.28C364.299,-5.28,371.019,-8.8,374.859,-13.6L375.819,-13.6L377.259,-6.72L390.219,-6.72L390.219,-65.76C390.219,-82.24,379.499,-89.92,361.099,-89.92C351.019,-89.92,342.699,-88.32,335.179,-85.28L335.179,-74.24C340.139,-75.36,346.859,-76.64,354.859,-76.64C369.259,-76.64,374.379,-73.92,374.379,-61.76L374.379,-54.72L353.899,-52.32C338.059,-50.24,328.459,-43.04,328.459,-28.48C328.459,-12.64,339.019,-5.28,353.739,-5.28ZM357.899,-16.8C349.739,-16.8,344.459,-20.8,344.459,-29.12C344.459,-37.6,348.779,-41.12,357.419,-42.08L374.379,-43.84L374.379,-22.08C371.179,-19.04,364.619,-16.8,357.899,-16.8ZM444.125,-5.28C455.485,-5.28,463.005,-8.16,468.445,-11.68L468.445,-23.68C464.125,-21.6,456.925,-18.24,446.525,-18.24C430.525,-18.24,422.205,-26.56,422.205,-46.24L422.205,-50.4C422.205,-67.52,431.005,-76.64,444.925,-76.64C455.325,-76.64,460.285,-74.72,467.485,-71.68L467.485,-84.64C462.045,-87.84,455.805,-89.92,445.085,-89.92C423.005,-89.92,405.885,-76.8,405.885,-48.32L405.885,-45.6C405.885,-18.56,420.765,-5.28,444.125,-5.28ZM510.194,-5.92C517.714,-5.92,521.394,-7.52,524.754,-8.96L524.754,-19.52C521.554,-19.04,518.034,-18.56,514.674,-18.56C505.874,-18.56,503.474,-21.28,503.474,-28.64L503.474,-75.68L523.154,-75.68L523.154,-88.32L503.474,-88.32L503.474,-107.52L487.634,-107.52L487.634,-88.32L476.114,-88.32L476.114,-75.68L487.634,-75.68L487.634,-26.4C487.634,-11.52,496.594,-5.92,510.194,-5.92Z" transform="translate(-6.72,118.24)"/>
</svg>
