<?xml version="1.0" encoding="UTF-8"?>
<svg enable-background="new 0 0 32 32" version="1.1" viewBox="0 0 19.077999 23.808001" xml:space="preserve" xmlns="http://www.w3.org/2000/svg" xmlns:cc="http://creativecommons.org/ns#" xmlns:dc="http://purl.org/dc/elements/1.1/" xmlns:rdf="http://www.w3.org/1999/02/22-rdf-syntax-ns#">
    <metadata>
        <rdf:RDF>
            <cc:Work rdf:about="">
                <dc:format>image/svg+xml</dc:format>
                <dc:type rdf:resource="http://purl.org/dc/dcmitype/StillImage" />
            </cc:Work>
        </rdf:RDF>
    </metadata>
    <g transform="translate(-6.461,-4.096)">
        <polygon points="15.259 24.17 12.86 24.17 14.801 25.58 14.06 27.859 16 26.451 17.94 27.859 17.199 25.58 19.14 24.17 16.741 24.17 16 21.889" />
        <polygon points="8.859 24.215 6.461 24.215 8.401 25.625 7.661 27.904 9.601 26.496 11.541 27.902 10.8 25.625 12.74 24.215 10.342 24.215 9.601 21.934" />
        <polygon points="22.399 21.889 21.658 24.17 19.26 24.17 21.2 25.58 20.459 27.859 22.399 26.451 24.339 27.857 23.599 25.58 25.539 24.17 23.14 24.17" />
        <path d="m16 13.096c2.481 0 4.5-2.018 4.5-4.5 0-2.48-2.019-4.5-4.5-4.5s-4.5 2.02-4.5 4.5c0 2.482 2.019 4.5 4.5 4.5zm0-8c1.93 0 3.5 1.57 3.5 3.5s-1.57 3.5-3.5 3.5-3.5-1.57-3.5-3.5 1.57-3.5 3.5-3.5z" />
        <path d="m22.5 19.596c0-2.076-1.702-4.5-6.5-4.5s-6.5 2.424-6.5 4.5v0.5h13zm-11.958-0.5c0.315-1.838 2.387-3 5.458-3s5.144 1.162 5.458 3z" />
    </g>
</svg>