<?xml version="1.0" encoding="utf-8"?>
<!-- Svg Vector Icons : http://www.onlinewebfonts.com/icon -->
<!DOCTYPE svg PUBLIC "-//W3C//DTD SVG 1.1//EN" "http://www.w3.org/Graphics/SVG/1.1/DTD/svg11.dtd">
<svg version="1.1" xmlns="http://www.w3.org/2000/svg" xmlns:xlink="http://www.w3.org/1999/xlink" x="0px" y="0px" viewBox="0 0 1000 1000" enable-background="new 0 0 1000 1000" xml:space="preserve">
<g><path d="M256.7,499.9c0,134.3,108.9,243.2,243.2,243.2c134.3,0,243.2-108.9,243.2-243.2c0-134.3-108.9-243.2-243.2-243.2C365.6,256.7,256.7,365.6,256.7,499.9L256.7,499.9z"/><path d="M102.9,454.7c20.8-184.6,167.2-330.9,351.8-351.8V10.1C219,31.6,31.6,219.1,10,454.7H102.9z"/><path d="M545.1,102.9c184.6,20.9,331.1,167.2,351.8,351.8h92.9C968.4,219.1,780.8,31.5,545.1,10L545.1,102.9L545.1,102.9z"/><path d="M454.7,897.1c-184.6-20.8-331-167.2-351.8-351.8H10C31.6,780.9,219,968.5,454.7,990L454.7,897.1L454.7,897.1z"/><path d="M897,545.3c-20.7,184.6-167.2,331-351.8,351.8V990C780.9,968.5,968.4,780.9,990,545.3H897z"/></g>
</svg>