<?xml version="1.0" encoding="UTF-8"?>
<svg version="1.1" viewBox="0 -256 1920 1280" xmlns="http://www.w3.org/2000/svg" xmlns:rdf="http://www.w3.org/1999/02/22-rdf-syntax-ns#">
    <path d="m416 768c-44 0-81.667-15.667-113-47s-47-69-47-113v-704c0-44 15.667-81.67 47-113s69-47 113-47h1088c44 0 81.67 15.67 113 47s47 69 47 113v704c0 44-15.67 81.667-47 113s-69 47-113 47zm-32-864v704c0 8.667 3.167 16.167 9.5 22.5s13.833 9.5 22.5 9.5h1088c8.67 0 16.17-3.167 22.5-9.5s9.5-13.833 9.5-22.5v-704c0-8.67-3.17-16.17-9.5-22.5s-13.83-9.5-22.5-9.5h-1088c-8.667 0-16.167 3.17-22.5 9.5s-9.5 13.83-9.5 22.5zm1376 928h160v96c0 26.667-15.67 49.333-47 68s-69 28-113 28h-1600c-44 0-81.667-9.3333-113-28s-47-41.333-47-68v-96h160zm-720 96c10.67 0 16-5.333 16-16s-5.33-16-16-16h-160c-10.667 0-16 5.333-16 16s5.333 16 16 16z" />
    <g transform="translate(708.48 13.956)">
        <path d="m153.82 358.23-153.82-83.889v-46.463l153.82-83.414v54.574l-107.18 51.489 107.18 53.431v54.272z" />
        <path d="m180.09 387.58 102.01-272.5h32.227l-102.25 272.5z" />
        <path d="m348.84 358.23v-54.272l107.16-52.999-107.16-52.59v-53.927l153.82 83.522v46.183z" />
    </g>
</svg>