<?xml version="1.0" encoding="UTF-8" standalone="no"?>
<!-- Created with Keyshape -->
<svg xmlns="http://www.w3.org/2000/svg" xmlns:xlink="http://www.w3.org/1999/xlink" id="svg3037" viewBox="0 -256 1950 1950">
    <metadata id="metadata3047"/>
    <path id="path3041" d="M416,256C372,256,334.333,271.667,303,303C271.667,334.333,256,372,256,416L256,1120C256,1164,271.667,1201.67,303,1233C334.333,1264.33,372,1280,416,1280L1504,1280C1548,1280,1585.67,1264.33,1617,1233C1648.33,1201.67,1664,1164,1664,1120L1664,416C1664,372,1648.33,334.333,1617,303C1585.67,271.667,1548,256,1504,256L416,256ZM384,1120L384,416C384,407.333,387.167,399.833,393.5,393.5C399.833,387.167,407.333,384,416,384L1504,384C1512.67,384,1520.17,387.167,1526.5,393.5C1532.83,399.833,1536,407.333,1536,416L1536,1120C1536,1128.67,1532.83,1136.17,1526.5,1142.5C1520.17,1148.83,1512.67,1152,1504,1152L416,1152C407.333,1152,399.833,1148.83,393.5,1142.5C387.167,1136.17,384,1128.67,384,1120ZM1760,192L1920,192L1920,96C1920,69.3333,1904.33,46.6667,1873,28C1841.67,9.33333,1804,0,1760,0L160,0C116,0,78.3333,9.33333,47,28C15.6667,46.6667,0,69.3333,0,96L0,192L160,192L1760,192ZM1040,96C1050.67,96,1056,101.333,1056,112C1056,122.667,1050.67,128,1040,128L880,128C869.333,128,864,122.667,864,112C864,101.333,869.333,96,880,96L1040,96Z"  transform="translate(15.1864,1597.46) rotate(180) scale(-1,1)"/>
    <g transform="translate(723.668,587.416)">
        <path d="M153.821,358.226L0,274.337L0,227.874L153.821,144.46L153.821,199.034L46.636,250.523L153.821,303.954C153.821,303.954,153.821,358.226,153.821,358.226Z" />
        <path d="M180.094,387.584L282.103,115.08L314.33,115.08L212.084,387.584L180.094,387.584Z" />
        <path d="M348.843,358.226L348.843,303.954L456.007,250.955L348.843,198.365L348.843,144.438L502.664,227.96L502.664,274.143L348.843,358.226Z" />
    </g>
</svg>
