<?xml version="1.0" encoding="UTF-8"?>
<svg shape-rendering="geometricPrecision" text-rendering="geometricPrecision" style="white-space:pre" version="1.1" viewBox="0 0 54.044498 36.192001" xmlns="http://www.w3.org/2000/svg" xmlns:cc="http://creativecommons.org/ns#" xmlns:dc="http://purl.org/dc/elements/1.1/" xmlns:rdf="http://www.w3.org/1999/02/22-rdf-syntax-ns#">
   <metadata>
   <rdf:RDF>
   <cc:Work rdf:about="">
   <dc:format>image/svg+xml</dc:format>
   <dc:type rdf:resource="http://purl.org/dc/dcmitype/StillImage"/>
   </cc:Work>
   </rdf:RDF>
   </metadata>
   <path d="m33.696 7.248-2.688 2.064c-3.2-3.968-7.312-5.952-12.336-5.952-4.096 0-7.624 1.44-10.584 4.32s-4.44 6.408-4.44 10.584 1.448 7.664 4.344 10.464 6.52 4.2 10.872 4.2c4.864 0 8.912-1.888 12.144-5.664l2.688 2.064c-1.696 2.24-3.84 3.944-6.432 5.112s-5.456 1.752-8.592 1.752c-5.472 0-9.952-1.728-13.44-5.184s-5.232-7.824-5.232-13.104c0-3.264 0.808-6.28 2.424-9.048s3.856-4.936 6.72-6.504 5.944-2.352 9.24-2.352 6.256 0.624 8.88 1.872 4.768 3.04 6.432 5.376z"/>
   <path d="m31.958 11.467h1.82v2.002c0.48533-0.8147 0.95767-1.4127 1.417-1.794s0.97067-0.572 1.534-0.572 1.131 0.156 1.703 0.468l-0.936 1.508c-0.26-0.156-0.52867-0.234-0.806-0.234-0.53733 0-1.0443 0.2773-1.521 0.832s-0.82767 1.2697-1.053 2.145-0.338 2.4657-0.338 4.771v4.68h-1.82zm20.11 9.334 1.508 0.78c-1.4907 2.7733-3.692 4.16-6.604 4.16-2.08 0-3.796-0.715-5.148-2.145s-2.028-3.1503-2.028-5.161c0-2.0107 0.68033-3.7353 2.041-5.174 1.3607-1.4387 3.042-2.158 5.044-2.158s3.6833 0.6673 5.044 2.002 2.067 3.1547 2.119 5.46h-12.428c0.052 1.664 0.5763 3.003 1.573 4.017s2.2057 1.521 3.627 1.521c2.34 0 4.0907-1.1007 5.252-3.302zm0-3.77c-0.2427-1.3173-0.8493-2.3487-1.82-3.094s-2.0887-1.118-3.354-1.118c-2.6 0-4.2987 1.404-5.096 4.212z"/>
   <path d="m24.533 18.27c0 3.3137-2.6863 6-6 6s-6-2.6863-6-6 2.6863-6 6-6 6 2.6863 6 6z"/>
</svg>
