<?xml version="1.0" encoding="UTF-8"?>
<svg enable-background="new 0 0 100 100" style="white-space:preserve-spaces" viewBox="0 0 90 62.625" xmlns="http://www.w3.org/2000/svg">
    <g transform="translate(-5,-18.688)">
        <path d="m50.001 43.086c6.727 0 12.198-5.473 12.198-12.199s-5.472-12.199-12.198-12.199-12.2 5.472-12.2 12.199 5.473 12.199 12.2 12.199z"/>
        <path d="m61.271 43.595c-3.005 2.668-6.946 4.304-11.271 4.304-4.326 0-8.267-1.636-11.272-4.304-4.636 1.673-7.966 6.105-7.966 11.311v26.407h38.474v-26.407c1e-3 -5.206-3.328-9.638-7.965-11.311z"/>
        <path d="m22.269 43.495c5.887 0 10.685-4.707 10.855-10.554-0.082-0.675-0.137-1.358-0.137-2.055v-2e-3c-0.837-5.168-5.318-9.131-10.719-9.131-5.995 0-10.871 4.877-10.871 10.871 1e-3 5.995 4.878 10.871 10.872 10.871z"/>
        <path d="m12.291 44.717c-4.283 1.844-7.291 6.104-7.291 11.055v20.068h20.95v-20.934c0-2.744 0.673-5.328 1.841-7.619-1.721 0.65-3.576 1.023-5.522 1.023-3.787-1e-3 -7.265-1.351-9.978-3.593z"/>
        <path d="m66.876 32.936c0.167 5.85 4.966 10.56 10.854 10.56 5.995 0 10.871-4.877 10.871-10.871s-4.877-10.871-10.871-10.871c-5.403 0-9.886 3.968-10.719 9.141 1e-3 0.691-0.053 1.37-0.135 2.041z"/>
        <path d="m87.709 44.717c-2.713 2.243-6.191 3.592-9.978 3.592-1.945 0-3.801-0.373-5.522-1.023 1.168 2.291 1.841 4.876 1.841 7.62v20.934h20.95v-20.068c0-4.951-3.008-9.211-7.291-11.055z"/>
    </g>
</svg>
