<?xml version="1.0" encoding="UTF-8" standalone="no"?>
<!-- Created with Keyshape -->
<svg xmlns="http://www.w3.org/2000/svg" xmlns:xlink="http://www.w3.org/1999/xlink" id="Capa_1" x="0px" y="0px" viewBox="0 0 1950 1950" style="white-space: preserve-spaces;">
    <path d="M1290.24,5.26886L467.35,5.26886C388.599,5.26886,325.025,68.1055,325.025,145.457L325.025,1789.71C325.025,1867,388.599,1929.76,467.35,1929.76L1290.24,1929.76C1368.84,1929.76,1432.55,1867,1432.55,1789.71L1432.55,145.457C1432.55,68.1055,1368.84,5.26886,1290.24,5.26886ZM675.745,90.4057L1081.98,90.4057C1092.25,90.4057,1100.59,105.484,1100.59,124.138C1100.59,142.793,1092.25,157.941,1081.98,157.941L675.745,157.941C665.41,157.941,657.213,142.793,657.213,124.138C657.213,105.484,665.41,90.4057,675.745,90.4057ZM878.863,1791.4C828.763,1791.4,787.994,1751.28,787.994,1701.91C787.994,1652.54,828.763,1612.57,878.863,1612.57C928.823,1612.57,969.596,1652.54,969.596,1701.91C969.596,1751.28,928.823,1791.4,878.863,1791.4ZM1325.94,1485.01L431.715,1485.01L431.715,241.815L1325.94,241.815L1325.94,1485.01Z"  transform="translate(114,5)"/>
    <g transform="translate(741.456,587.416)">
        <path d="M153.821,358.226L0,274.337L0,227.874L153.821,144.46L153.821,199.034L46.636,250.523L153.821,303.954C153.821,303.954,153.821,358.226,153.821,358.226Z" />
        <path d="M180.094,387.584L282.103,115.08L314.33,115.08L212.084,387.584L180.094,387.584Z" />
        <path d="M348.843,358.226L348.843,303.954L456.007,250.955L348.843,198.365L348.843,144.438L502.664,227.96L502.664,274.143L348.843,358.226Z" />
    </g>
</svg>
