<?xml version="1.0" encoding="UTF-8"?>
<svg version="1.1" viewBox="0 0 24 22" xmlns="http://www.w3.org/2000/svg" xmlns:cc="http://creativecommons.org/ns#" xmlns:dc="http://purl.org/dc/elements/1.1/" xmlns:rdf="http://www.w3.org/1999/02/22-rdf-syntax-ns#">
    <metadata>
        <rdf:RDF>
            <cc:Work rdf:about="">
                <dc:format>image/svg+xml</dc:format>
                <dc:type rdf:resource="http://purl.org/dc/dcmitype/StillImage" />
            </cc:Work>
        </rdf:RDF>
    </metadata>
    <g transform="translate(0,-1)"fill-rule="evenodd">
        <g transform="translate(-72,-216)">
            <g transform="translate(72,217)">
                <path d="m13 17v1h-6l0.4-1z" />
                <path d="m21 3v-1.5c0-0.82843-0.67157-1.5-1.5-1.5h-18c-0.82843 0-1.5 0.67157-1.5 1.5v13c0 0.82843 0.67157 1.5 1.5 1.5h11.5v-3h-12v-11.5c0-0.27614 0.22386-0.5 0.5-0.5h18c0.27614 0 0.5 0.22386 0.5 0.5v1.5z" fill-rule="nonzero" />
                <path d="m6.5 19h6.5v-1h-6.5c-0.27614 0-0.5 0.22386-0.5 0.5s0.22386 0.5 0.5 0.5z" fill-rule="nonzero" />
                <g transform="translate(14,4)" fill-rule="nonzero">
                    <path d="m1.5 0h7c0.82843 0 1.5 0.67157 1.5 1.5v15c0 0.82843-0.67157 1.5-1.5 1.5h-7c-0.82843 0-1.5-0.67157-1.5-1.5v-15c0-0.82843 0.67157-1.5 1.5-1.5zm-0.5 2v12h8v-12zm5 14c0-0.55228-0.44772-1-1-1-0.55228 0-1 0.44772-1 1s0.44772 1 1 1c0.55228 0 1-0.44772 1-1z" />
                </g>
            </g>
        </g>
    </g>
</svg>