<?xml version="1.0" encoding="UTF-8" standalone="no"?>
<!-- Created with Keyshape -->
<svg xmlns="http://www.w3.org/2000/svg" xmlns:xlink="http://www.w3.org/1999/xlink" id="teamsvg" viewBox="0 0 122.699 122.699" style="white-space: preserve-spaces;">
    <ellipse rx="12.1" ry="12.1" transform="translate(0,0) translate(19.5,12.2)"/>
    <path d="M6,66.699L7.2,66.699L7.2,90.699C7.2,94,9.9,96.699,13.2,96.699L25.8,96.699C29.1,96.699,31.8,94,31.8,90.699L31.8,89.3C30.7,87.199,30,84.8,30,82.3L30,50.9C30,44.8,33.7,39.5,39,37.2L39,34.8C39,31.5,36.3,28.8,33,28.8L6,28.8C2.7,28.8,0,31.5,0,34.8L0,60.7C0,64,2.6,66.699,6,66.699Z"/>
    <ellipse rx="12.1" ry="12.1" transform="translate(0,0) translate(103.3,12.2)"/>
    <path d="M83.699,34.7L83.699,37.1C89,39.4,92.699,44.7,92.699,50.8L92.699,82.1C92.699,84.6,92.099,87,90.9,89.1L90.9,90.5C90.9,93.8,93.599,96.5,96.9,96.5L109.5,96.5C112.8,96.5,115.5,93.8,115.5,90.5L115.5,66.5L116.699,66.5C120,66.5,122.699,63.8,122.699,60.5L122.699,34.7C122.699,31.4,120,28.7,116.699,28.7L89.699,28.7C86.4,28.7,83.699,31.399,83.699,34.7Z"/>
    <path d="M39.1,50.899L39.1,50.899L39.1,60.699L39.1,82.299C39.1,85.599,41.8,88.299,45.1,88.299L47.4,88.299L47.4,116.599C47.4,119.899,50.1,122.599,53.4,122.599L69.5,122.599C72.8,122.599,75.5,119.899,75.5,116.599L75.5,88.199L77.8,88.199C81.1,88.199,83.8,85.5,83.8,82.199L83.8,60.7L83.8,50.9L83.8,50.9C83.8,47.6,81.1,44.9,77.8,44.9L45.1,44.9C41.7,44.899,39.1,47.6,39.1,50.899Z"/>
    <ellipse rx="13.9" ry="13.9" transform="translate(0,0) translate(61.4,26)"/>
</svg>
