<?xml version="1.0" encoding="UTF-8" standalone="no"?>
<!-- Created with Keyshape -->
<svg xmlns="http://www.w3.org/2000/svg" xmlns:xlink="http://www.w3.org/1999/xlink" viewBox="0 0 49 27" style="white-space: preserve-spaces;">
    <ellipse rx="13.499" ry="13.499" stroke="none" stroke-width="0.5" fill-rule="nonzero" opacity="0.9" transform="translate(35.499,13.499)"/>
    <metadata/>
    <path d="M7.776,-3.096L7.776,-8.568L6.636,-8.568L6.636,-3.096C6.636,-2.328,6.446,-1.746,6.066,-1.35C5.686,-0.954,5.132,-0.756,4.404,-0.756C3.636,-0.756,3.048,-0.954,2.64,-1.35C2.232,-1.746,2.028,-2.328,2.028,-3.096L2.028,-8.568L0.888,-8.568L0.888,-3.096C0.888,-1.952,1.198,-1.118,1.818,-0.594C2.438,-0.07,3.3,0.192,4.404,0.192C5.484,0.192,6.316,-0.082,6.9,-0.63C7.484,-1.178,7.776,-2,7.776,-3.096ZM9.64025,-8.568L9.64025,0L10.7803,0L10.7803,-8.568Z" fill="#ffffff" stroke="none" transform="translate(29.9132,18.424)"/>
    <ellipse rx="13.499" ry="13.499" stroke="none" stroke-width="0.5" opacity="0.9" transform="translate(13.499,13.499)"/>
    <path d="M7.776,-3.096L7.776,-8.568L6.636,-8.568L6.636,-3.096C6.636,-2.328,6.446,-1.746,6.066,-1.35C5.686,-0.954,5.132,-0.756,4.404,-0.756C3.636,-0.756,3.048,-0.954,2.64,-1.35C2.232,-1.746,2.028,-2.328,2.028,-3.096L2.028,-8.568L0.888,-8.568L0.888,-3.096C0.888,-1.952,1.198,-1.118,1.818,-0.594C2.438,-0.07,3.3,0.192,4.404,0.192C5.484,0.192,6.316,-0.082,6.9,-0.63C7.484,-1.178,7.776,-2,7.776,-3.096ZM11.6322,-4.404L8.65625,0L9.92825,0L12.3042,-3.54L14.6082,0L16.0002,0L12.9882,-4.404L15.8202,-8.568L14.5483,-8.568L12.3162,-5.22L10.1803,-8.568L8.81225,-8.568Z" fill="#ffffff" stroke="none" transform="translate(5.5,18.424)"/>
</svg>
