<?xml version="1.0" encoding="UTF-8"?>
<svg enable-background="new 0 0 100 100" version="1.1" viewBox="0 0 76.400002 61.900002" xml:space="preserve" xmlns="http://www.w3.org/2000/svg" xmlns:cc="http://creativecommons.org/ns#" xmlns:dc="http://purl.org/dc/elements/1.1/" xmlns:rdf="http://www.w3.org/1999/02/22-rdf-syntax-ns#">
    <metadata>
        <rdf:RDF>
            <cc:Work rdf:about="">
                <dc:format>image/svg+xml</dc:format>
                <dc:type rdf:resource="http://purl.org/dc/dcmitype/StillImage" />
            </cc:Work>
        </rdf:RDF>
    </metadata>
    <polygon transform="translate(-10.9,-17.5)" points="72.7 64.7 72.7 61.6 69.6 61.6 58 61.6 58 50 58 46.9 54.9 46.9 43.3 46.9 43.3 35.3 43.3 32.2 40.2 32.2 28.6 32.2 28.6 20.6 28.6 17.5 25.5 17.5 10.9 17.5 10.9 20.6 25.5 20.6 25.5 35.3 25.5 35.3 25.5 35.3 40.2 35.3 40.2 50 40.2 50 40.2 50 54.9 50 54.9 64.7 54.9 64.7 54.9 64.7 69.6 64.7 69.6 79.4 69.6 79.4 72.7 79.4 82.6 79.4 84.2 79.4 87.3 79.4 87.3 76.3 84.2 76.3 72.7 76.3" />
</svg>