<?xml version="1.0" encoding="UTF-8"?>
<svg version="1.1" viewBox="0 0 44.00285 40" xmlns="http://www.w3.org/2000/svg" xmlns:cc="http://creativecommons.org/ns#" xmlns:dc="http://purl.org/dc/elements/1.1/" xmlns:rdf="http://www.w3.org/1999/02/22-rdf-syntax-ns#">
   <path d="m43.56 18.254-9.309-16.516c-0.59-1.054-1.762-1.738-2.95-1.738h-18.6c-1.188 0-2.36 0.684-2.95 1.738l-9.309 16.516a3.667 3.667 0 0 0 0 3.492l9.309 16.516c0.59 1.054 1.762 1.738 2.95 1.738h18.6c1.188 0 2.36-0.688 2.95-1.738l9.309-16.516c0.59-1.062 0.59-2.43 0-3.492zm-12.946 11.746h-3.05a0.407 0.407 0 0 1 -0.352 -0.219l-5.164-9.581c-0.027-0.05-0.067-0.05-0.094 0l-5.18 9.582a0.395 0.395 0 0 1 -0.332 0.219h-3.05c-0.278 0-0.489-0.367-0.344-0.621l5.047-9.38-5.047-9.398c-0.125-0.227 0.027-0.551 0.265-0.602h3.125c0.133 0 0.266 0.09 0.336 0.207l5.18 9.586c0.027 0.05 0.067 0.05 0.094 0l5.16-9.586a0.417 0.417 0 0 1 0.355 -0.207h3.051c0.266 0 0.465 0.355 0.34 0.602l-5.047 9.398 5.047 9.379c0.145 0.254-0.066 0.621-0.34 0.621z"/>
   <metadata>
   <rdf:RDF>
   <rdf:Description about="https://iconscout.com/legal#licenses" dc:date="2017-12-09" dc:description="xamarin,filled" dc:format="image/svg+xml" dc:language="en" dc:publisher="Iconscout" dc:title="xamarin,filled">
   <dc:creator>
   <rdf:Bag>
   <rdf:li>Icons8</rdf:li>
   </rdf:Bag>
   </dc:creator>
   </rdf:Description>
   <cc:Work rdf:about="">
   <dc:format>image/svg+xml</dc:format>
   <dc:type rdf:resource="http://purl.org/dc/dcmitype/StillImage"/>
   </cc:Work>
   </rdf:RDF>
   </metadata>
</svg>
