<?xml version="1.0" encoding="UTF-8" standalone="no"?>
<!-- Created with Keyshape -->
<svg xmlns="http://www.w3.org/2000/svg" xmlns:xlink="http://www.w3.org/1999/xlink" x="0px" y="0px" viewBox="0 0 1000 1000" enable-background="new 0 0 1000 1000" style="white-space: preserve-spaces;">
    <metadata/>
    <path d="M975.4,320.4L518.1,15.5C507.1,8.2,492.8,8.2,481.9,15.5L24.5,320.4C15.4,326.4,10,336.7,10,347.6L10,652.5C10,663.4,15.5,673.6,24.5,679.7L481.8,984.6C487.3,988.3,493.6,990.1,499.9,990.1C506.2,990.1,512.5,988.3,518,984.6L975.3,679.7C984.4,673.7,989.8,663.4,989.8,652.5L989.8,347.6C990,336.7,984.5,326.4,975.4,320.4L975.4,320.4ZM500,613.2L330.2,500L500,386.8L669.7,500L500,613.2ZM532.6,330.1L532.6,103.7L898.4,347.6L728.6,460.8L532.6,330.1L532.6,330.1ZM467.3,330.1L271.3,460.8L101.5,347.6L467.3,103.7L467.3,330.1ZM212.4,500L75.3,591.4L75.3,408.6L212.4,500ZM271.3,539.3L467.3,670L467.3,896.4L101.5,652.5L271.3,539.3ZM532.6,669.9L728.6,539.2L898.4,652.4L532.6,896.3L532.6,669.9ZM787.5,500L924.6,408.6L924.6,591.4L787.5,500Z"/>
</svg>
