<?xml version="1.0" encoding="UTF-8"?>
<svg version="1.1" viewBox="0 0 1005.0039 576.66662" xml:space="preserve" xmlns="http://www.w3.org/2000/svg" xmlns:cc="http://creativecommons.org/ns#" xmlns:dc="http://purl.org/dc/elements/1.1/" xmlns:rdf="http://www.w3.org/1999/02/22-rdf-syntax-ns#"><metadata><rdf:RDF><cc:Work rdf:about=""><dc:format>image/svg+xml</dc:format><dc:type rdf:resource="http://purl.org/dc/dcmitype/StillImage"/><dc:title/></cc:Work></rdf:RDF></metadata><defs><linearGradient id="l" x2="1" gradientTransform="matrix(526.54 -306.7 -306.7 -526.54 704.26 813.17)" gradientUnits="userSpaceOnUse"><stop stop-color="#b79662" offset="0"/><stop stop-color="#ead398" offset=".082636"/><stop stop-color="#ead398" offset=".086022"/><stop stop-color="#b79662" offset=".2478"/><stop stop-color="#b79662" offset=".52338"/><stop stop-color="#b79662" offset=".75101"/><stop stop-color="#fad792" offset="1"/></linearGradient><linearGradient id="b" x2="1" gradientTransform="matrix(526.54 -306.7 -306.7 -526.54 725.04 848.83)" gradientUnits="userSpaceOnUse"><stop stop-color="#b79662" offset="0"/><stop stop-color="#ead398" offset=".082636"/><stop stop-color="#ead398" offset=".086022"/><stop stop-color="#b79662" offset=".2478"/><stop stop-color="#b79662" offset=".52338"/><stop stop-color="#b79662" offset=".75101"/><stop stop-color="#fad792" offset="1"/></linearGradient><linearGradient id="a" x2="1" gradientTransform="matrix(526.54 -306.7 -306.7 -526.54 744.44 882.15)" gradientUnits="userSpaceOnUse"><stop stop-color="#b79662" offset="0"/><stop stop-color="#ead398" offset=".082636"/><stop stop-color="#ead398" offset=".086022"/><stop stop-color="#b79662" offset=".2478"/><stop stop-color="#b79662" offset=".52338"/><stop stop-color="#b79662" offset=".75101"/><stop stop-color="#fad792" offset="1"/></linearGradient><linearGradient id="u" x2="1" gradientTransform="matrix(526.54 -306.7 -306.7 -526.54 762.49 913.15)" gradientUnits="userSpaceOnUse"><stop stop-color="#b79662" offset="0"/><stop stop-color="#ead398" offset=".082636"/><stop stop-color="#ead398" offset=".086022"/><stop stop-color="#b79662" offset=".2478"/><stop stop-color="#b79662" offset=".52338"/><stop stop-color="#b79662" offset=".75101"/><stop stop-color="#fad792" offset="1"/></linearGradient><linearGradient id="t" x2="1" gradientTransform="matrix(526.54 -306.7 -306.7 -526.54 782.66 947.76)" gradientUnits="userSpaceOnUse"><stop stop-color="#b79662" offset="0"/><stop stop-color="#ead398" offset=".082636"/><stop stop-color="#ead398" offset=".086022"/><stop stop-color="#b79662" offset=".2478"/><stop stop-color="#b79662" offset=".52338"/><stop stop-color="#b79662" offset=".75101"/><stop stop-color="#fad792" offset="1"/></linearGradient><linearGradient id="s" x2="1" gradientTransform="matrix(526.54 -306.7 -306.7 -526.54 797.84 973.82)" gradientUnits="userSpaceOnUse"><stop stop-color="#b79662" offset="0"/><stop stop-color="#ead398" offset=".082636"/><stop stop-color="#ead398" offset=".086022"/><stop stop-color="#b79662" offset=".2478"/><stop stop-color="#b79662" offset=".52338"/><stop stop-color="#b79662" offset=".75101"/><stop stop-color="#fad792" offset="1"/></linearGradient><linearGradient id="r" x2="1" gradientTransform="matrix(526.54 -306.7 -306.7 -526.54 818.49 1009.3)" gradientUnits="userSpaceOnUse"><stop stop-color="#b79662" offset="0"/><stop stop-color="#ead398" offset=".082636"/><stop stop-color="#ead398" offset=".086022"/><stop stop-color="#b79662" offset=".2478"/><stop stop-color="#b79662" offset=".52338"/><stop stop-color="#b79662" offset=".75101"/><stop stop-color="#fad792" offset="1"/></linearGradient><linearGradient id="q" x2="1" gradientTransform="matrix(526.54 -306.7 -306.7 -526.54 840.37 1046.8)" gradientUnits="userSpaceOnUse"><stop stop-color="#b79662" offset="0"/><stop stop-color="#ead398" offset=".082636"/><stop stop-color="#ead398" offset=".086022"/><stop stop-color="#b79662" offset=".2478"/><stop stop-color="#b79662" offset=".52338"/><stop stop-color="#b79662" offset=".75101"/><stop stop-color="#fad792" offset="1"/></linearGradient><linearGradient id="p" x2="1" gradientTransform="matrix(526.54 -306.7 -306.7 -526.54 863.7 1086.9)" gradientUnits="userSpaceOnUse"><stop stop-color="#b79662" offset="0"/><stop stop-color="#ead398" offset=".082636"/><stop stop-color="#ead398" offset=".086022"/><stop stop-color="#b79662" offset=".2478"/><stop stop-color="#b79662" offset=".52338"/><stop stop-color="#b79662" offset=".75101"/><stop stop-color="#fad792" offset="1"/></linearGradient><linearGradient id="o" x2="1" gradientTransform="matrix(526.54 -306.7 -306.7 -526.54 888.54 1129.5)" gradientUnits="userSpaceOnUse"><stop stop-color="#b79662" offset="0"/><stop stop-color="#ead398" offset=".082636"/><stop stop-color="#ead398" offset=".086022"/><stop stop-color="#b79662" offset=".2478"/><stop stop-color="#b79662" offset=".52338"/><stop stop-color="#b79662" offset=".75101"/><stop stop-color="#fad792" offset="1"/></linearGradient><linearGradient id="n" x2="1" gradientTransform="matrix(526.54 -306.7 -306.7 -526.54 732.1 860.96)" gradientUnits="userSpaceOnUse"><stop stop-color="#b79662" offset="0"/><stop stop-color="#ead398" offset=".082636"/><stop stop-color="#ead398" offset=".086022"/><stop stop-color="#b79662" offset=".2478"/><stop stop-color="#b79662" offset=".52338"/><stop stop-color="#b79662" offset=".75101"/><stop stop-color="#fad792" offset="1"/></linearGradient><linearGradient id="m" x2="1" gradientTransform="matrix(526.54 -306.7 -306.7 -526.54 746.4 885.52)" gradientUnits="userSpaceOnUse"><stop stop-color="#b79662" offset="0"/><stop stop-color="#ead398" offset=".082636"/><stop stop-color="#ead398" offset=".086022"/><stop stop-color="#b79662" offset=".2478"/><stop stop-color="#b79662" offset=".52338"/><stop stop-color="#b79662" offset=".75101"/><stop stop-color="#fad792" offset="1"/></linearGradient><linearGradient id="k" x2="1" gradientTransform="matrix(526.54 -306.7 -306.7 -526.54 759.48 907.97)" gradientUnits="userSpaceOnUse"><stop stop-color="#b79662" offset="0"/><stop stop-color="#ead398" offset=".082636"/><stop stop-color="#ead398" offset=".086022"/><stop stop-color="#b79662" offset=".2478"/><stop stop-color="#b79662" offset=".52338"/><stop stop-color="#b79662" offset=".75101"/><stop stop-color="#fad792" offset="1"/></linearGradient><linearGradient id="j" x2="1" gradientTransform="matrix(526.54 -306.7 -306.7 -526.54 771.33 928.32)" gradientUnits="userSpaceOnUse"><stop stop-color="#b79662" offset="0"/><stop stop-color="#ead398" offset=".082636"/><stop stop-color="#ead398" offset=".086022"/><stop stop-color="#b79662" offset=".2478"/><stop stop-color="#b79662" offset=".52338"/><stop stop-color="#b79662" offset=".75101"/><stop stop-color="#fad792" offset="1"/></linearGradient><linearGradient id="i" x2="1" gradientTransform="matrix(526.54 -306.7 -306.7 -526.54 783.96 950)" gradientUnits="userSpaceOnUse"><stop stop-color="#b79662" offset="0"/><stop stop-color="#ead398" offset=".082636"/><stop stop-color="#ead398" offset=".086022"/><stop stop-color="#b79662" offset=".2478"/><stop stop-color="#b79662" offset=".52338"/><stop stop-color="#b79662" offset=".75101"/><stop stop-color="#fad792" offset="1"/></linearGradient><linearGradient id="h" x2="1" gradientTransform="matrix(526.54 -306.7 -306.7 -526.54 795.76 970.26)" gradientUnits="userSpaceOnUse"><stop stop-color="#b79662" offset="0"/><stop stop-color="#ead398" offset=".082636"/><stop stop-color="#ead398" offset=".086022"/><stop stop-color="#b79662" offset=".2478"/><stop stop-color="#b79662" offset=".52338"/><stop stop-color="#b79662" offset=".75101"/><stop stop-color="#fad792" offset="1"/></linearGradient><linearGradient id="g" x2="1" gradientTransform="matrix(526.54 -306.7 -306.7 -526.54 693.96 795.48)" gradientUnits="userSpaceOnUse"><stop stop-color="#b79662" offset="0"/><stop stop-color="#ead398" offset=".082636"/><stop stop-color="#ead398" offset=".086022"/><stop stop-color="#b79662" offset=".2478"/><stop stop-color="#b79662" offset=".52338"/><stop stop-color="#b79662" offset=".75101"/><stop stop-color="#fad792" offset="1"/></linearGradient><linearGradient id="f" x2="1" gradientTransform="matrix(526.54 -306.7 -306.7 -526.54 834.13 1036.1)" gradientUnits="userSpaceOnUse"><stop stop-color="#b79662" offset="0"/><stop stop-color="#ead398" offset=".082636"/><stop stop-color="#ead398" offset=".086022"/><stop stop-color="#b79662" offset=".2478"/><stop stop-color="#b79662" offset=".52338"/><stop stop-color="#b79662" offset=".75101"/><stop stop-color="#fad792" offset="1"/></linearGradient><linearGradient id="e" x2="1" gradientTransform="matrix(526.54 -306.7 -306.7 -526.54 909.92 1166.3)" gradientUnits="userSpaceOnUse"><stop stop-color="#b79662" offset="0"/><stop stop-color="#ead398" offset=".082636"/><stop stop-color="#ead398" offset=".086022"/><stop stop-color="#b79662" offset=".2478"/><stop stop-color="#b79662" offset=".52338"/><stop stop-color="#b79662" offset=".75101"/><stop stop-color="#fad792" offset="1"/></linearGradient><linearGradient id="d" x2="1" gradientTransform="matrix(526.54 -306.7 -306.7 -526.54 827.31 1024.4)" gradientUnits="userSpaceOnUse"><stop stop-color="#b79662" offset="0"/><stop stop-color="#ead398" offset=".082636"/><stop stop-color="#ead398" offset=".086022"/><stop stop-color="#b79662" offset=".2478"/><stop stop-color="#b79662" offset=".52338"/><stop stop-color="#b79662" offset=".75101"/><stop stop-color="#fad792" offset="1"/></linearGradient><linearGradient id="c" x2="1" gradientTransform="matrix(526.54 -306.7 -306.7 -526.54 845.83 1056.2)" gradientUnits="userSpaceOnUse"><stop stop-color="#b79662" offset="0"/><stop stop-color="#ead398" offset=".082636"/><stop stop-color="#ead398" offset=".086022"/><stop stop-color="#b79662" offset=".2478"/><stop stop-color="#b79662" offset=".52338"/><stop stop-color="#b79662" offset=".75101"/><stop stop-color="#fad792" offset="1"/></linearGradient></defs><g transform="matrix(1.3333 0 0 -1.3333 -726.18 1651.3)"><path d="m544.64 923.94v-51.138h19.806c14.117 0 25.57 11.452 25.57 25.569 0 14.116-11.453 25.569-25.57 25.569zm7.202-7.202h12.604c10.156 0 18.367-8.212 18.367-18.367 0-10.156-8.211-18.367-18.367-18.367h-12.604z" fill="url(#l)"/><path d="m636.4 872.8h7.203v51.138h-7.203z" fill="url(#b)"/><path d="m689.91 898.37c0-14.765 11.956-26.721 26.721-26.721 8.427 0 15.846 3.816 20.743 9.866v19.807h-26.649v-7.202h19.446v-9.867c-3.529-3.385-8.282-5.403-13.54-5.403-10.804 0-19.518 8.717-19.518 19.52 0 10.731 8.714 19.519 19.518 19.519 5.258 0 10.011-2.089 13.54-5.475l5.042 5.115c-4.898 4.681-11.307 7.562-18.582 7.562-14.765 0-26.721-11.956-26.721-26.721" fill="url(#a)"/><path d="m784.27 872.8h7.202v51.138h-7.202z" fill="url(#u)"/><path d="m835.77 923.94v-7.202h18.726v-43.936h7.203v43.936h18.726v7.202z" fill="url(#t)"/><path d="m933.36 923.94-20.023-51.138h7.707l16.349 41.702 16.349-41.702h7.707l-20.023 51.138z" fill="url(#s)"/><path d="m1005.3 923.94v-51.138h37.454v7.202h-30.251v43.936z" fill="url(#r)"/><path d="m1101.3 923.94-20.024-51.138h7.708l16.349 41.702 16.349-41.702h7.708l-20.024 51.138z" fill="url(#q)"/><path d="m1173.2 923.94v-51.138h7.203v18.366h12.532l11.091-18.366h8.356l-11.381 18.798c7.203 1.729 12.533 8.068 12.533 15.917 0 9.005-7.418 16.423-16.422 16.423zm7.203-7.202h16.709c5.114 0 9.22-4.106 9.22-9.221 0-5.113-4.106-9.146-9.22-9.146h-16.709z" fill="url(#p)"/><path d="m1253.7 923.94v-7.202h18.727v-43.936h7.203v43.936h18.725v7.202z" fill="url(#o)"/><path d="m787.11 829.52c0-5.868 5.342-7.795 11.605-8.978 4.465-0.963 8.1-1.883 8.1-5.079 0-3.153-3.635-5.08-8.1-5.08-4.467 0-8.102 1.752-8.102 5.08h-4.378c0-5.824 5.604-9.459 12.48-9.459 6.875 0 12.479 3.416 12.479 9.459 0 6.042-5.604 8.189-12.479 9.458-3.854 0.7-7.226 2.189-7.226 4.599 0 2.934 2.802 4.596 7.226 4.596 3.984 0 7.225-1.662 7.225-4.596h4.378c0 5.298-4.772 8.975-11.603 8.975-6.394 0-11.605-3.239-11.605-8.975" fill="url(#n)"/><path d="m835.76 837.79v-4.379h11.385v-26.711h4.379v26.711h11.384v4.379z" fill="url(#m)"/><path d="m911.16 837.79v-18.742c0-4.773-3.897-8.67-8.67-8.67s-8.671 3.897-8.671 8.67v18.742h-4.378v-18.742c0-7.181 5.868-13.049 13.049-13.049s13.049 5.868 13.049 13.049v18.742z" fill="url(#k)"/><path d="m945.31 837.79v-31.09h12.042c8.582 0 15.545 6.962 15.545 15.545s-6.963 15.545-15.545 15.545zm4.379-4.379h7.663c6.174 0 11.166-4.992 11.166-11.166 0-6.175-4.992-11.166-11.166-11.166h-7.663z" fill="url(#j)"/><path d="m1001.1 806.7h4.379v31.09h-4.379z" fill="url(#i)"/><path d="m1033.6 822.25c0-8.976 7.269-16.246 16.246-16.246 8.976 0 16.245 7.27 16.245 16.246 0 8.977-7.269 16.245-16.245 16.245-8.977 0-16.246-7.268-16.246-16.245m4.378 0c0 6.524 5.3 11.866 11.868 11.866 6.524 0 11.866-5.342 11.866-11.866 0-6.568-5.342-11.867-11.866-11.867-6.568 0-11.868 5.299-11.868 11.867" fill="url(#h)"/><path d="m544.88 822.52h199.92v3.148h-199.92z" fill="url(#g)"/><path d="m1098.2 822.52h199.92v3.148h-199.92z" fill="url(#f)"/><path d="m790.06 1238.5v-139.71h3.935v135.77h244.79v-244.79h-75.955v-3.936h79.891v252.66z" fill="url(#e)"/><path d="m791.02 1083.1c-0.579 0-1.053-0.207-1.424-0.619-0.372-0.414-0.557-0.909-0.557-1.485v-94.936c0-0.495 0.164-0.949 0.495-1.362 0.329-0.414 0.784-0.618 1.362-0.618 1.319 0 1.98 0.659 1.98 1.982v93.201h8.54v-92.953c0-0.578 0.187-1.073 0.558-1.488 0.37-0.413 0.845-0.619 1.423-0.619l16.214 0.125c6.765 0.081 13.16 1.401 19.186 3.96 6.022 2.557 11.263 6.065 15.719 10.522 4.456 4.455 7.983 9.673 10.583 15.657 2.599 5.981 3.899 12.397 3.899 19.247 0 6.765-1.3 13.161-3.899 19.185-2.6 6.023-6.127 11.263-10.583 15.719s-9.697 7.984-15.719 10.583c-6.026 2.599-12.421 3.899-19.186 3.899zm14.234-3.837c2.392 0 4.784 0.019 7.178 0.061 2.393 0.041 4.785 0.063 7.179 0.063 6.271 0 12.192-1.2 17.762-3.596s10.397-5.639 14.482-9.729c4.084-4.09 7.322-8.924 9.716-14.502 2.393-5.577 3.59-11.504 3.59-17.784 0-6.282-1.197-12.169-3.59-17.664-2.394-5.494-5.653-10.286-9.778-14.377-4.127-4.09-8.954-7.334-14.482-9.729-5.529-2.397-11.429-3.636-17.7-3.718-2.394-0.083-4.786-0.124-7.179-0.124h-7.178z" fill="url(#d)"/><path d="m901.18 1082c-0.331-0.909-1.113-2.951-2.352-6.127-1.237-3.177-2.744-7.098-4.518-11.759-1.775-4.663-3.755-9.799-5.941-15.41-2.187-5.613-4.374-11.285-6.56-17.019-2.187-5.735-4.332-11.325-6.436-16.77-2.104-5.447-3.961-10.275-5.57-14.483-1.609-4.209-2.909-7.633-3.899-10.274s-1.485-4.003-1.485-4.084c0-0.99 0.412-1.609 1.238-1.857 0.165 0 0.267-0.021 0.309-0.061 0.041-0.043 0.143-0.062 0.31-0.062 0.906 0 1.525 0.412 1.857 1.237l28.838 75.008 29.707-75.008c0.329-0.825 0.907-1.237 1.732-1.237 0.165 0 0.289 0.019 0.372 0.062 0.081 0.04 0.205 0.061 0.372 0.061 0.823 0.248 1.237 0.825 1.237 1.733 0 0.081-0.414 1.217-1.237 3.405-0.827 2.185-1.919 5.052-3.281 8.601-1.362 3.548-2.929 7.592-4.703 12.13-1.775 4.538-3.611 9.201-5.508 13.988-1.899 4.784-3.756 9.508-5.569 14.172-1.818 4.66-3.51 8.912-5.076 12.748-1.568 3.837-2.89 7.075-3.961 9.716-1.073 2.641-1.775 4.291-2.104 4.952l4.084 10.521 36.019-90.852c0.248-0.825 0.867-1.237 1.856-1.237 0.496 0 0.929 0.186 1.301 0.557 0.371 0.371 0.557 0.804 0.557 1.299 0 0.081-0.517 1.443-1.548 4.085-1.032 2.64-2.373 6.084-4.022 10.335-1.652 4.25-3.571 9.098-5.756 14.545-2.187 5.445-4.415 11.035-6.684 16.77-2.27 5.734-4.539 11.406-6.808 17.019-2.27 5.611-4.312 10.747-6.126 15.41-1.816 4.661-3.363 8.582-4.642 11.759-1.28 3.176-2.085 5.218-2.413 6.127-0.248 0.742-0.826 1.114-1.734 1.114-0.909 0-1.528-0.372-1.856-1.114" fill="url(#c)"/></g></svg>
