<?xml version="1.0" encoding="UTF-8" standalone="no"?>
<!-- Created with Keyshape -->
<svg xmlns="http://www.w3.org/2000/svg" xmlns:xlink="http://www.w3.org/1999/xlink" id="svg55" viewBox="0 0 341.33334 341.33334">
    <metadata id="metadata61"/>
    <path id="path87" d="M137.333,254L137.333,181.333L123.333,181.333L109.333,181.333L109.333,156.667L109.333,132L123.333,132L137.333,132L137.357,111.667C137.391,81.3677,141.343,67.1628,153.366,54.1195C165.675,40.7653,178.253,37.3804,215.667,37.353L242.667,37.3333L242.667,62L242.667,86.6667L223.27,86.6667C204.007,86.6667,203.85,86.6911,200.603,90.1947C197.448,93.5989,197.333,94.3942,197.333,112.861L197.333,132L220.151,132L242.969,132L242.201,137.667C241.778,140.783,240.78,150.533,239.984,159.333C237.741,184.103,240.595,181.333,217.308,181.333L197.333,181.333L197.333,254L197.333,326.667L167.333,326.667L137.333,326.667Z" stroke-width="1.33333"/>
</svg>
