<svg viewBox="0 0 158 1005" xmlns="http://www.w3.org/2000/svg" xmlns:xlink="http://www.w3.org/1999/xlink"><linearGradient id="a"><stop offset="0" stop-color="#b79662"/><stop offset=".082636" stop-color="#ead398"/><stop offset=".086022" stop-color="#ead398"/><stop offset=".2478" stop-color="#b79662"/><stop offset=".52338" stop-color="#b79662"/><stop offset=".75101" stop-color="#b79662"/><stop offset="1" stop-color="#fad792"/></linearGradient><linearGradient id="b" gradientTransform="matrix(526.54 -306.7 -306.7 -526.54 704.26 813.17)" gradientUnits="userSpaceOnUse" x1="0" x2="1" xlink:href="#a" y1="0" y2="0"/><linearGradient id="c" gradientTransform="matrix(526.54 -306.7 -306.7 -526.54 725.04 848.83)" gradientUnits="userSpaceOnUse" x1="0" x2="1" xlink:href="#a" y1="0" y2="0"/><linearGradient id="d" gradientTransform="matrix(526.54 -306.7 -306.7 -526.54 744.44 882.15)" gradientUnits="userSpaceOnUse" x1="0" x2="1" xlink:href="#a" y1="0" y2="0"/><linearGradient id="e" gradientTransform="matrix(526.54 -306.7 -306.7 -526.54 762.49 913.15)" gradientUnits="userSpaceOnUse" x1="0" x2="1" xlink:href="#a" y1="0" y2="0"/><linearGradient id="f" gradientTransform="matrix(526.54 -306.7 -306.7 -526.54 782.66 947.76)" gradientUnits="userSpaceOnUse" x1="0" x2="1" xlink:href="#a" y1="0" y2="0"/><linearGradient id="g" gradientTransform="matrix(526.54 -306.7 -306.7 -526.54 797.84 973.82)" gradientUnits="userSpaceOnUse" x1="0" x2="1" xlink:href="#a" y1="0" y2="0"/><linearGradient id="h" gradientTransform="matrix(526.54 -306.7 -306.7 -526.54 818.49 1009.3)" gradientUnits="userSpaceOnUse" x1="0" x2="1" xlink:href="#a" y1="0" y2="0"/><linearGradient id="i" gradientTransform="matrix(526.54 -306.7 -306.7 -526.54 840.37 1046.8)" gradientUnits="userSpaceOnUse" x1="0" x2="1" xlink:href="#a" y1="0" y2="0"/><linearGradient id="j" gradientTransform="matrix(526.54 -306.7 -306.7 -526.54 863.7 1086.9)" gradientUnits="userSpaceOnUse" x1="0" x2="1" xlink:href="#a" y1="0" y2="0"/><linearGradient id="k" gradientTransform="matrix(526.54 -306.7 -306.7 -526.54 888.54 1129.5)" gradientUnits="userSpaceOnUse" x1="0" x2="1" xlink:href="#a" y1="0" y2="0"/><linearGradient id="l" gradientTransform="matrix(526.54 -306.7 -306.7 -526.54 732.1 860.96)" gradientUnits="userSpaceOnUse" x1="0" x2="1" xlink:href="#a" y1="0" y2="0"/><linearGradient id="m" gradientTransform="matrix(526.54 -306.7 -306.7 -526.54 746.4 885.52)" gradientUnits="userSpaceOnUse" x1="0" x2="1" xlink:href="#a" y1="0" y2="0"/><linearGradient id="n" gradientTransform="matrix(526.54 -306.7 -306.7 -526.54 759.48 907.97)" gradientUnits="userSpaceOnUse" x1="0" x2="1" xlink:href="#a" y1="0" y2="0"/><linearGradient id="o" gradientTransform="matrix(526.54 -306.7 -306.7 -526.54 771.33 928.32)" gradientUnits="userSpaceOnUse" x1="0" x2="1" xlink:href="#a" y1="0" y2="0"/><linearGradient id="p" gradientTransform="matrix(526.54 -306.7 -306.7 -526.54 783.96 950)" gradientUnits="userSpaceOnUse" x1="0" x2="1" xlink:href="#a" y1="0" y2="0"/><linearGradient id="q" gradientTransform="matrix(526.54 -306.7 -306.7 -526.54 795.76 970.26)" gradientUnits="userSpaceOnUse" x1="0" x2="1" xlink:href="#a" y1="0" y2="0"/><linearGradient id="r" gradientTransform="matrix(526.54 -306.7 -306.7 -526.54 693.96 795.48)" gradientUnits="userSpaceOnUse" x1="0" x2="1" xlink:href="#a" y1="0" y2="0"/><linearGradient id="s" gradientTransform="matrix(526.54 -306.7 -306.7 -526.54 834.13 1036.1)" gradientUnits="userSpaceOnUse" x1="0" x2="1" xlink:href="#a" y1="0" y2="0"/><g transform="matrix(0 -1.3333 -1.3333 0 1232.66 1731.5)"><path d="m544.64 923.94v-51.138h19.806c14.117 0 25.57 11.452 25.57 25.569 0 14.116-11.453 25.569-25.57 25.569zm7.202-7.202h12.604c10.156 0 18.367-8.212 18.367-18.367 0-10.156-8.211-18.367-18.367-18.367h-12.604z" fill="url(#b)"/><path d="m636.4 872.8h7.203v51.138h-7.203z" fill="url(#c)"/><path d="m689.91 898.37c0-14.765 11.956-26.721 26.721-26.721 8.427 0 15.846 3.816 20.743 9.866v19.807h-26.649v-7.202h19.446v-9.867c-3.529-3.385-8.282-5.403-13.54-5.403-10.804 0-19.518 8.717-19.518 19.52 0 10.731 8.714 19.519 19.518 19.519 5.258 0 10.011-2.089 13.54-5.475l5.042 5.115c-4.898 4.681-11.307 7.562-18.582 7.562-14.765 0-26.721-11.956-26.721-26.721" fill="url(#d)"/><path d="m784.27 872.8h7.202v51.138h-7.202z" fill="url(#e)"/><path d="m835.77 923.94v-7.202h18.726v-43.936h7.203v43.936h18.726v7.202z" fill="url(#f)"/><path d="m933.36 923.94-20.023-51.138h7.707l16.349 41.702 16.349-41.702h7.707l-20.023 51.138z" fill="url(#g)"/><path d="m1005.3 923.94v-51.138h37.45v7.202h-30.25v43.936z" fill="url(#h)"/><path d="m1101.3 923.94-20.02-51.138h7.7l16.35 41.702 16.35-41.702h7.71l-20.02 51.138z" fill="url(#i)"/><path d="m1173.2 923.94v-51.138h7.2v18.366h12.53l11.1-18.366h8.35l-11.38 18.798c7.2 1.729 12.53 8.068 12.53 15.917 0 9.005-7.41 16.423-16.42 16.423zm7.2-7.202h16.71c5.12 0 9.22-4.106 9.22-9.221 0-5.113-4.1-9.146-9.22-9.146h-16.71z" fill="url(#j)"/><path d="m1253.7 923.94v-7.202h18.73v-43.936h7.2v43.936h18.73v7.202z" fill="url(#k)"/><path d="m787.11 829.52c0-5.868 5.342-7.795 11.605-8.978 4.465-.963 8.1-1.883 8.1-5.079 0-3.153-3.635-5.08-8.1-5.08-4.467 0-8.102 1.752-8.102 5.08h-4.378c0-5.824 5.604-9.459 12.48-9.459 6.875 0 12.479 3.416 12.479 9.459 0 6.042-5.604 8.189-12.479 9.458-3.854.7-7.226 2.189-7.226 4.599 0 2.934 2.802 4.596 7.226 4.596 3.984 0 7.225-1.662 7.225-4.596h4.378c0 5.298-4.772 8.975-11.603 8.975-6.394 0-11.605-3.239-11.605-8.975" fill="url(#l)"/><path d="m835.76 837.79v-4.379h11.385v-26.711h4.379v26.711h11.384v4.379z" fill="url(#m)"/><path d="m911.16 837.79v-18.742c0-4.773-3.897-8.67-8.67-8.67s-8.671 3.897-8.671 8.67v18.742h-4.378v-18.742c0-7.181 5.868-13.049 13.049-13.049s13.049 5.868 13.049 13.049v18.742z" fill="url(#n)"/><path d="m945.31 837.79v-31.09h12.042c8.582 0 15.545 6.962 15.545 15.545s-6.963 15.545-15.545 15.545zm4.379-4.379h7.663c6.174 0 11.166-4.992 11.166-11.166 0-6.175-4.992-11.166-11.166-11.166h-7.663z" fill="url(#o)"/><path d="m1001.1 806.7h4.38v31.09h-4.38z" fill="url(#p)"/><path d="m1033.6 822.25c0-8.976 7.27-16.246 16.25-16.246 8.97 0 16.24 7.27 16.24 16.246 0 8.977-7.27 16.245-16.24 16.245-8.98 0-16.25-7.268-16.25-16.245m4.38 0c0 6.524 5.3 11.866 11.87 11.866 6.52 0 11.86-5.342 11.86-11.866 0-6.568-5.34-11.867-11.86-11.867-6.57 0-11.87 5.299-11.87 11.867" fill="url(#q)"/><path d="m544.88 822.52h199.92v3.148h-199.92z" fill="url(#r)"/><path d="m1098.2 822.52h199.92v3.148h-199.92z" fill="url(#s)"/></g></svg>